<?xml version="1.0" standalone="no"?>
<!DOCTYPE svg PUBLIC "-//W3C//DTD SVG 20010904//EN"
 "http://www.w3.org/TR/2001/REC-SVG-20010904/DTD/svg10.dtd">
<svg version="1.0" xmlns="http://www.w3.org/2000/svg"
 width="96.000000pt" height="96.000000pt" viewBox="0 0 96.000000 96.000000"
 preserveAspectRatio="xMidYMid meet">

<g transform="translate(0.000000,96.000000) scale(0.100000,-0.100000)"
fill="#000000" stroke="none">
<path d="M425 815 c-31 -30 -32 -73 -5 -108 13 -16 20 -40 20 -66 l0 -41 40 0
40 0 0 41 c0 26 7 50 20 66 42 54 7 133 -60 133 -19 0 -40 -9 -55 -25z"/>
<path d="M105 655 c-33 -33 -33 -78 1 -112 22 -22 32 -25 67 -20 31 4 52 0 88
-19 27 -13 52 -24 56 -24 4 0 15 16 25 34 l16 33 -59 28 c-32 16 -59 35 -59
42 0 26 -48 63 -80 63 -19 0 -40 -9 -55 -25z"/>
<path d="M745 655 c-14 -13 -25 -30 -25 -38 0 -7 -27 -26 -59 -42 l-59 -28 16
-33 c10 -18 21 -34 25 -34 4 0 29 11 56 24 36 19 57 23 88 19 35 -5 45 -2 67
20 34 34 34 79 1 112 -15 16 -36 25 -55 25 -19 0 -40 -9 -55 -25z"/>
<path d="M425 495 c-16 -15 -25 -36 -25 -55 0 -19 9 -40 25 -55 15 -16 36 -25
55 -25 70 0 105 86 55 135 -15 16 -36 25 -55 25 -19 0 -40 -9 -55 -25z"/>
<path d="M260 375 c-35 -18 -55 -22 -87 -18 -35 5 -45 2 -67 -20 -51 -51 -17
-137 54 -137 32 0 80 37 80 63 0 7 27 26 59 42 l59 28 -16 33 c-10 18 -21 33
-27 33 -5 0 -30 -11 -55 -24z"/>
<path d="M618 366 l-16 -33 59 -28 c32 -16 59 -35 59 -42 0 -26 48 -63 80 -63
71 0 105 86 54 137 -22 22 -32 25 -67 20 -31 -4 -52 0 -88 19 -27 13 -52 24
-56 24 -4 0 -15 -16 -25 -34z"/>
<path d="M397 266 c-61 -22 -77 -42 -77 -98 l0 -48 160 0 160 0 0 48 c0 36 -5
54 -19 66 -28 26 -89 45 -141 45 -25 0 -62 -6 -83 -13z"/>
</g>
</svg>
